# xmcd
#
# Track frame offsets:
#	150
#	21138
#	33888
#	47647
#	64619
#	80970
#	98298
#	117995
#	135828
#	153653
#	168097
#	182161
#	197787
#	212281
#
# Disc length: 3124 seconds
#
# Revision: 1
# Processed by: cddbd v1.5.2PL0 Copyright (c) Steve Scherf et al.
# Submitted via: EasyCDDAExtractor 16.0.6.1
#
DISCID=ab0c320e
DTITLE=Γλυκερία - Όμορφα τραγούδια της Γλυκερίας 1
DYEAR=2009
DGENRE=Ποικίλη
TTITLE0=Το σκαλοπάτι σου [Β. Τσιτσάνης-Γερ. Τσάκαλος]
TTITLE1=Χαράματα στο Χάραμα [Στέλ. Φωτιάδης-Λευτ. Χαψιάδης]
TTITLE2=Άρχισαν τα όργανα [Μ. Σουγιούλ-Χ.Γιαννακόπουλος/Σακελλάριος]
TTITLE3=Παλιοπαρέα [Γ. Μουζάκης-Ηλ. Λυμπερόπουλος]
TTITLE4=Ο μοναχός ο άνθρωπος [Ν. Παπάζογλου-Λάζ. Ανδρέου]
TTITLE5=Μάτια μου [Ορφέας Περίδης]
TTITLE6=Παντού [Στέλ. Φωτιάδης-Λευτ. Χαψιάδης]
TTITLE7=Ο Ιούδας φιλούσε υπέροχα [Πλούτ. Ρεμπούτσικας-Ηλ. Κατσούλης]
TTITLE8=Και τι ζητάω [Λαυρ. Μαχαιρίτσας-Γιάννης Γεωργακόπουλος]
TTITLE9=Χαρικλάκι [Παναγιώτης Τούντας]
TTITLE10=Ένα λεπτό περιπτερά [Τ. Μουσαφίρης-Μαριαννίνα Κριεζή]
TTITLE11=Καλημέρα [Νίκος Παπάζογλου-Τάκης Σιμώτας]
TTITLE12=Ό,τι άναψε θα σβήσει [Νίκος Καρανικόλας-Παν. Κωλέττης]
TTITLE13=Γλυκέ μου τύραννε [Γιάννης Γαβαλάς-Γιώργος Κυριαζής]
EXTD=
EXTT0=
EXTT1=
EXTT2=
EXTT3=
EXTT4=
EXTT5=
EXTT6=
EXTT7=
EXTT8=
EXTT9=
EXTT10=
EXTT11=
EXTT12=
EXTT13=
PLAYORDER=
